<?xml version="1.0" encoding="UTF-8"?>
<svg id="Layer_2" data-name="Layer 2" xmlns="http://www.w3.org/2000/svg" viewBox="0 0 103.7 103.7">
  <defs>
    <style>
      .cls-1 {
        fill: #556352;
      }
    </style>
  </defs>
  <g id="Layer_1-2" data-name="Layer 1">
    <path class="cls-1" d="m51.85,0C23.22,0,0,23.82,0,53.17c0,23.49,14.86,43.4,35.46,50.44.29.06.58.09.88.09,1.92,0,2.66-1.41,2.66-2.64s-.05-4.61-.07-9.05c-1.72.4-3.47.61-5.23.62-9.98,0-12.24-7.75-12.24-7.75-2.36-6.13-5.76-7.78-5.76-7.78-4.51-3.17-.02-3.26.32-3.26h.02c5.21.46,7.94,5.51,7.94,5.51,2.59,4.54,6.06,5.81,9.17,5.81,2.05-.04,4.07-.51,5.93-1.39.46-3.43,1.81-5.76,3.29-7.11-11.5-1.34-23.61-5.9-23.61-26.27,0-5.81,2.01-10.56,5.32-14.26-.53-1.34-2.31-6.76.51-14.07.38-.09.77-.13,1.16-.12,1.87,0,6.11.72,13.1,5.58,8.49-2.38,17.48-2.38,25.97,0,6.99-4.86,11.23-5.58,13.1-5.58.39-.01.78.03,1.16.12,2.82,7.31,1.04,12.73.51,14.07,3.31,3.73,5.32,8.47,5.32,14.26,0,20.42-12.13,24.91-23.68,26.23,1.85,1.64,3.52,4.88,3.52,9.84,0,7.11-.07,12.85-.07,14.58,0,1.25.72,2.66,2.64,2.66.31,0,.62-.03.93-.09,20.62-7.04,35.46-26.97,35.46-50.44C103.7,23.82,80.48,0,51.85,0Z"/>
  </g>
</svg>