<?xml version="1.0" encoding="UTF-8"?>
<svg id="Layer_2" data-name="Layer 2" xmlns="http://www.w3.org/2000/svg" viewBox="0 0 101 101">
  <defs>
    <style>
      .cls-1 {
        fill: #556352;
      }
    </style>
  </defs>
  <g id="Layer_1-2" data-name="Layer 1">
    <g>
      <path class="cls-1" d="m71.41,8.57c11.6.03,20.99,9.43,21.02,21.02v42.04c-.03,11.6-9.43,20.99-21.02,21.02H29.37c-11.6-.03-20.99-9.43-21.02-21.02V29.59c.03-11.6,9.43-20.99,21.02-21.02h42.1m.07-8.57H29.46C13.26,0,0,13.26,0,29.46v42.08c0,16.2,13.26,29.46,29.46,29.46h42.08c16.2,0,29.46-13.26,29.46-29.46V29.46c0-16.2-13.26-29.46-29.46-29.46Z"/>
      <path class="cls-1" d="m77.82,29.53c-3.62,0-6.53-3.05-6.3-6.72.2-3.14,2.75-5.7,5.9-5.9,3.67-.23,6.72,2.68,6.72,6.3,0,3.48-2.81,6.31-6.29,6.31,0,0-.02,0-.03,0Z"/>
      <path class="cls-1" d="m50.47,33.7c9.3,0,16.83,7.54,16.83,16.83s-7.54,16.83-16.83,16.83-16.83-7.54-16.83-16.83c0-9.29,7.54-16.82,16.83-16.83m0-8.42c-13.95,0-25.25,11.3-25.25,25.25s11.3,25.25,25.25,25.25,25.25-11.3,25.25-25.25-11.3-25.25-25.25-25.25Z"/>
    </g>
  </g>
</svg>