<?xml version="1.0" encoding="UTF-8"?>
<svg id="Layer_2" data-name="Layer 2" xmlns="http://www.w3.org/2000/svg" viewBox="0 0 108 84.86">
  <defs>
    <style>
      .cls-1 {
        fill: #556352;
      }
    </style>
  </defs>
  <g id="Layer_1-2" data-name="Layer 1">
    <path class="cls-1" d="m94.5,0H13.5C6.05,0,0,6.05,0,13.5v57.86c0,7.45,6.05,13.49,13.5,13.5h81c7.45,0,13.49-6.05,13.5-13.5V13.5c0-7.45-6.05-13.49-13.5-13.5Zm-3.48,22.25l-34.71,27c-1.39,1.08-3.34,1.08-4.73,0L16.86,22.25c-1.7-1.28-2.04-3.7-.75-5.4,1.28-1.7,3.7-2.04,5.4-.75.03.02.06.04.09.07l32.35,25.16,32.35-25.16c1.7-1.28,4.12-.95,5.4.75,1.26,1.67.96,4.03-.67,5.34h0Z"/>
  </g>
</svg>