<?xml version="1.0" encoding="UTF-8"?>
<svg id="Layer_2" data-name="Layer 2" xmlns="http://www.w3.org/2000/svg" viewBox="0 0 83 95.63">
  <defs>
    <style>
      .cls-1 {
        fill: #556352;
      }
    </style>
  </defs>
  <g id="Layer_1-2" data-name="Layer 1">
    <g>
      <path class="cls-1" d="m75.15,26.29c-.09.55-.19,1.12-.3,1.7-3.84,19.63-16.98,26.4-33.76,26.4h-8.38c-2.03,0-3.76,1.47-4.08,3.48l-4.35,27.47-1.23,7.79c-.19,1.18.62,2.29,1.8,2.47,0,0,0,0,0,0,.11.02.23.03.34.03h15.09c1.78,0,3.29-1.28,3.58-3.03l.15-.76,2.83-17.88.18-.98c.28-1.76,1.8-3.05,3.58-3.04h2.22c14.68,0,26.18-5.93,29.53-23.1,1.4-7.17.68-13.16-3.04-17.37-1.18-1.3-2.59-2.37-4.15-3.17Z"/>
      <path class="cls-1" d="m67.27,7C62.94,2.1,55.13,0,45.14,0h-28.95c-2.04,0-3.77,1.47-4.09,3.48L.03,79.62c-.21,1.35.71,2.62,2.06,2.83,0,0,0,0,0,0,.13.02.26.03.39.03h17.89l4.48-28.3-.14.89c.31-2,2.04-3.48,4.07-3.47h8.48c16.72,0,29.81-6.76,33.64-26.3.11-.58.21-1.14.3-1.69h0c1.14-7.23,0-12.15-3.94-16.6Z"/>
    </g>
  </g>
</svg>