<?xml version="1.0" encoding="utf-8"?>
<!-- Generator: Adobe Illustrator 27.5.0, SVG Export Plug-In . SVG Version: 6.00 Build 0)  -->
<svg version="1.1" id="Layer_1" xmlns="http://www.w3.org/2000/svg" xmlns:xlink="http://www.w3.org/1999/xlink" x="0px" y="0px"
	 viewBox="0 0 24 24" style="enable-background:new 0 0 24 24;" xml:space="preserve">
<style type="text/css">
	.st0{fill:#556352;}
</style>
<path class="st0" d="M5.5,15c0.9,0,1.7-0.3,2.4-0.9l6.3,3.6C14,17.9,14,18.2,14,18.5c0,1.9,1.6,3.5,3.5,3.6c1.9,0,3.5-1.6,3.6-3.5
	c0-1.9-1.6-3.5-3.5-3.6c-0.9,0-1.8,0.3-2.4,0.9l-6.3-3.6C9,12.1,9,11.8,9,11.6l6.1-3.5c1.4,1.3,3.6,1.2,4.9-0.2s1.2-3.6-0.2-4.9
	s-3.6-1.2-4.9,0.2C14.3,3.8,14,4.6,14,5.5c0,0.3,0,0.6,0.1,0.8L8.4,9.6c-1-1.6-3.2-2.1-4.8-1s-2.1,3.2-1,4.8C3.2,14.4,4.3,15,5.5,15
	z M17.5,17c0.8,0,1.5,0.7,1.5,1.5S18.3,20,17.5,20S16,19.3,16,18.5S16.7,17,17.5,17z M17.5,4C18.3,4,19,4.7,19,5.5S18.3,7,17.5,7
	S16,6.3,16,5.5S16.7,4,17.5,4z M5.5,10C6.3,10,7,10.7,7,11.5S6.3,13,5.5,13S4,12.3,4,11.5S4.7,10,5.5,10z"/>
</svg>
