<?xml version="1.0" encoding="UTF-8"?>
<svg id="Layer_2" data-name="Layer 2" xmlns="http://www.w3.org/2000/svg" viewBox="0 0 94.22 94.22">
  <defs>
    <style>
      .cls-1 {
        fill: #556352;
        fill-rule: evenodd;
      }
    </style>
  </defs>
  <g id="Layer_1-2" data-name="Layer 1">
    <path class="cls-1" d="m80.49,13.69C71.69,4.89,59.75-.04,47.31,0,21.45,0,.4,20.94.39,46.69c-.01,8.2,2.15,16.25,6.26,23.34L0,94.22l24.87-6.49c6.88,3.73,14.59,5.68,22.42,5.68h.02c25.85,0,46.9-20.94,46.91-46.69.03-12.4-4.91-24.3-13.73-33.02Zm-33.18,71.93h-.02c-6.98,0-13.83-1.87-19.84-5.41l-1.42-.84-14.76,3.85,3.94-14.32-.93-1.47c-3.9-6.18-5.97-13.34-5.96-20.65C8.31,25.39,25.81,7.99,47.32,7.99c21.49-.04,38.93,17.35,38.98,38.83,0,21.4-17.5,38.81-38.99,38.81Zm21.39-29.08c-1.17-.58-6.94-3.41-8.01-3.8s-1.86-.58-2.64.58c-.78,1.17-3.03,3.79-3.71,4.57s-1.37.87-2.54.29-4.95-1.81-9.43-5.79c-3.48-3.09-5.84-6.91-6.52-8.08-.68-1.17-.07-1.8.51-2.38.53-.52,1.17-1.36,1.76-2.04s.78-1.17,1.17-1.95.2-1.46-.1-2.04c-.29-.58-2.64-6.33-3.61-8.66-.95-2.28-1.92-1.97-2.64-2-.68-.03-1.47-.04-2.25-.04-1.2.03-2.33.56-3.13,1.46-1.07,1.17-4.1,4-4.1,9.73s4.21,11.29,4.79,12.07c.58.78,8.27,12.56,20.02,17.62,2.18.94,4.41,1.75,6.68,2.46,2.81.89,5.36.76,7.38.46,2.25-.33,6.94-2.82,7.91-5.55.97-2.73.98-5.06.68-5.55s-1.07-.78-2.25-1.36Z"/>
  </g>
</svg>